# xmcd
#
# Track frame offsets:
#	150
#	9430
#	22102
#	31547
#	44227
#	56815
#	73165
#	83730
#	94757
#	106387
#	118427
#	132380
#
# Disc length: 1983 seconds
# Revision: 4
# Processed by: cddbd v1.5.2PL0 Copyright (c) Steve Scherf et al.
# Submitted via: dBpowerAMP V12.0
#
DISCID=a907bd0c
DTITLE=Various Artist - Classic Country Hits [Direct Source]
DYEAR=2000
DGENRE=Country
TTITLE0=Charley Pride - Kiss An Angel Good Morning
TTITLE1=Waylon Jennings - I'm A Ramblin' Man
TTITLE2=Dottie West - Country Sunshine
TTITLE3=Gary Stewart - She's Actin' Single (I'm Drinkin' Doubles)
TTITLE4=Porter Wagoner - Please Don't Stop Loving Me
TTITLE5=Ronnie Milsap - It Was Almost Like A Song
TTITLE6=Jerry Reed - When You're Hot, You're Hot
TTITLE7=Charlie Rich - She Called Me Baby
TTITLE8=Dave and Sugar Rowland - Tear Time
TTITLE9=Dolly Parton - Jolene
TTITLE10=Jim Ed Brown - Morning
TTITLE11=Dickey Lee - Rocky
EXTD=
EXTT0=
EXTT1=
EXTT2=
EXTT3=
EXTT4=
EXTT5=
EXTT6=
EXTT7=
EXTT8=
EXTT9=
EXTT10=
EXTT11=
PLAYORDER=
